999
DXF file: E:\Work Directory\ElectronX\Ibrahim Hyder\Lamp Stp Main files 28062021\top_bottom_pcb.dxf
999
Pro/ENGINEER 2014350 by Parametric Technology Corporation
  0
SECTION
  2
HEADER
  9
$ACADVER
  1
AC1027
  9
$DWGCODEPAGE
  3
ANSI_1252
  9
$EXTMAX
 10
11.6929133858
 20
8.2677165354
 30
0.0
  9
$EXTMIN
 10
0.0
 20
-0.0
 30
0.0
  9
$LIMMIN
 10
0.0
 20
-0.0
  9
$LIMMAX
 10
11.6929133858
 20
8.2677165354
  9
$VIEWCTR
 10
5.8464566929
 20
4.1338582677
  9
$VIEWSIZE
 40
8.2677165354
  9
$CLAYER
  8
0
  9
$LTSCALE
 40
0.6431102362
  9
$CELTYPE
  6
BYLAYER
  9
$DIMSCALE
 40
1.0
  9
$DIMASZ
 40
0.1875
  9
$DIMEXO
 40
0.0625
  9
$DIMDLI
 40
0.4443307087
  9
$DIMEXE
 40
0.125
  9
$DIMCEN
 40
0.1052362205
  9
$DIMLFAC
 40
1.0
  9
$DIMBLK
  1
_CLOSED
  9
$DIMTXT
 40
0.15625
  9
$DIMTOL
 70
0
  9
$DIMLIM
 70
0
  9
$DIMTFAC
 40
1.0
  9
$DIMGAP
 40
0.09
  9
$DIMDSEP
 70
46
  9
$AUNITS
 70
0
  9
$PDMODE
 70
3
  9
$PDSIZE
 40
0.3125
  9
$HANDSEED
  5
235
  9
$TILEMODE
 70
1
  9
$MEASUREMENT
 70
0
  9
$INSUNITS
 70
1
  0
ENDSEC
  0
SECTION
  2
CLASSES
  0
CLASS
  1
ACDBDICTIONARYWDFLT
  2
AcDbDictionaryWithDefault
  3
AutoCAD 2000
 90
0
 91
1
280
0
281
0
  0
CLASS
  1
ACDBPLACEHOLDER
  2
AcDbPlaceHolder
  3
AutoCAD 2000
 90
0
 91
1
280
0
281
0
  0
CLASS
  1
LAYOUT
  2
AcDbLayout
  3
AutoCAD 2000
 90
0
 91
0
280
0
281
0
  0
ENDSEC
  0
SECTION
  2
TABLES
  0
TABLE
  2
VPORT
  5
8
100
AcDbSymbolTable
 70
2
  0
VPORT
  5
1F4
100
AcDbSymbolTableRecord
100
AcDbViewportTableRecord
  2
*ACTIVE
 70
0
 10
0.0
 20
0.0
 11
1.0
 21
1.0
 12
5.8464566929
 22
4.1338582677
 13
0.0
 23
0.0
 14
1.0
 24
1.0
 15
0.0
 25
0.0
 16
0.0
 26
0.0
 36
1.0
 17
0.0
 27
0.0
 37
0.0
 40
8.2677165354
 41
1.4142857143
 42
50.0
 43
0.0
 44
0.0
 50
0.0
 51
0.0
 71
0
 72
100
 73
1
 74
1
 75
0
 76
0
 77
0
 78
0
  0
ENDTAB
  0
TABLE
  2
LTYPE
  5
5
100
AcDbSymbolTable
 70
6
  0
LTYPE
  5
14
100
AcDbSymbolTableRecord
100
AcDbLinetypeTableRecord
  2
BYBLOCK
 70
0
  3

 72
65
 73
0
 40
0.0
  0
LTYPE
  5
15
100
AcDbSymbolTableRecord
100
AcDbLinetypeTableRecord
  2
BYLAYER
 70
0
  3

 72
65
 73
0
 40
0.0
  0
LTYPE
  5
16
100
AcDbSymbolTableRecord
100
AcDbLinetypeTableRecord
  2
CONTINUOUS
 70
64
  3
Solid line
 72
65
 73
0
 40
0.0
  0
LTYPE
  5
1F5
100
AcDbSymbolTableRecord
100
AcDbLinetypeTableRecord
  2
CENTER
 70
64
  3
____ _ ____ _ ____ _ ____ _ ____ _ ____ _ ____
 72
65
 73
4
 40
0.6
 49
0.375
 74
0
 49
-0.075
 74
0
 49
0.075
 74
0
 49
-0.075
 74
0
  0
LTYPE
  5
1F6
100
AcDbSymbolTableRecord
100
AcDbLinetypeTableRecord
  2
HIDDEN
 70
64
  3
- - - - - - - - - - - - - - - - - - - -
 72
65
 73
2
 40
0.2
 49
0.1
 74
0
 49
-0.1
 74
0
  0
LTYPE
  5
1F7
100
AcDbSymbolTableRecord
100
AcDbLinetypeTableRecord
  2
PHANTOM
 70
64
  3
_____ _ _ _____ _ _ _____ _ _ _____
 72
65
 73
6
 40
0.8
 49
0.45
 74
0
 49
-0.05
 74
0
 49
0.1
 74
0
 49
-0.05
 74
0
 49
0.1
 74
0
 49
-0.05
 74
0
  0
LTYPE
  5
1F8
100
AcDbSymbolTableRecord
100
AcDbLinetypeTableRecord
  2
DOT
 70
64
  3
. . . . . . . . . . . . . . . . . . . .
 72
65
 73
2
 40
0.2
 49
0.1
 74
0
 49
-0.1
 74
0
  0
LTYPE
  5
1F9
100
AcDbSymbolTableRecord
100
AcDbLinetypeTableRecord
  2
DASHED
 70
64
  3
- - - - - - - - - - - - - - - - - - - -
 72
65
 73
2
 40
0.2
 49
0.1
 74
0
 49
-0.1
 74
0
  0
ENDTAB
  0
TABLE
  2
LAYER
  5
2
100
AcDbSymbolTable
 70
36
  0
LAYER
  5
10
100
AcDbSymbolTableRecord
100
AcDbLayerTableRecord
  2
0
 70
0
 62
7
  6
CONTINUOUS
370
-3
390
F
  0
LAYER
  5
1FA
100
AcDbSymbolTableRecord
100
AcDbLayerTableRecord
  2
DEFAULT_1
 70
0
 62
7
  6
CENTER
370
-3
390
F
  0
LAYER
  5
1FB
100
AcDbSymbolTableRecord
100
AcDbLayerTableRecord
  2
DEFAULT_2
 70
0
 62
8
  6
HIDDEN
370
-3
390
F
  0
LAYER
  5
1FC
100
AcDbSymbolTableRecord
100
AcDbLayerTableRecord
  2
DEFAULT_3
 70
0
 62
7
  6
PHANTOM
370
-3
390
F
  0
LAYER
  5
1FD
100
AcDbSymbolTableRecord
100
AcDbLayerTableRecord
  2
01___PRT_ALL_DTM_PLN
 70
0
 62
7
  6
CONTINUOUS
370
-3
390
F
  0
LAYER
  5
1FE
100
AcDbSymbolTableRecord
100
AcDbLayerTableRecord
  2
01___PRT_DEF_DTM_PLN
 70
0
 62
7
  6
CONTINUOUS
370
-3
390
F
  0
LAYER
  5
1FF
100
AcDbSymbolTableRecord
100
AcDbLayerTableRecord
  2
02___PRT_ALL_AXES
 70
0
 62
7
  6
CONTINUOUS
370
-3
390
F
  0
LAYER
  5
200
100
AcDbSymbolTableRecord
100
AcDbLayerTableRecord
  2
03___PRT_ALL_CURVES
 70
0
 62
7
  6
CONTINUOUS
370
-3
390
F
  0
LAYER
  5
201
100
AcDbSymbolTableRecord
100
AcDbLayerTableRecord
  2
04___PRT_ALL_DTM_PNT
 70
0
 62
7
  6
CONTINUOUS
370
-3
390
F
  0
LAYER
  5
202
100
AcDbSymbolTableRecord
100
AcDbLayerTableRecord
  2
05___PRT_ALL_DTM_CSYS
 70
0
 62
7
  6
CONTINUOUS
370
-3
390
F
  0
LAYER
  5
203
100
AcDbSymbolTableRecord
100
AcDbLayerTableRecord
  2
05___PRT_DEF_DTM_CSYS
 70
0
 62
7
  6
CONTINUOUS
370
-3
390
F
  0
LAYER
  5
204
100
AcDbSymbolTableRecord
100
AcDbLayerTableRecord
  2
06___PRT_ALL_SURFS
 70
0
 62
7
  6
CONTINUOUS
370
-3
390
F
  0
ENDTAB
  0
TABLE
  2
STYLE
  5
3
100
AcDbSymbolTable
 70
1
  0
STYLE
  5
11
100
AcDbSymbolTableRecord
100
AcDbTextStyleTableRecord
  2
STANDARD
 70
0
 40
0.0
 41
0.8
 50
0.0
 71
0
 42
0.2
  3
txt
  4

  0
STYLE
  5
205
100
AcDbSymbolTableRecord
100
AcDbTextStyleTableRecord
  2
TEXTSTYLE_1
 70
0
 40
0.0
 41
0.8
 50
0.0
 71
0
 42
0.2
  3
gdt
  4

  0
ENDTAB
  0
TABLE
  2
VIEW
  5
6
100
AcDbSymbolTable
 70
0
  0
ENDTAB
  0
TABLE
  2
UCS
  5
7
100
AcDbSymbolTable
 70
0
  0
ENDTAB
  0
TABLE
  2
APPID
  5
9
100
AcDbSymbolTable
 70
1
  0
APPID
  5
206
100
AcDbSymbolTableRecord
100
AcDbRegAppTableRecord
  2
ACAD
 70
0
  0
ENDTAB
  0
TABLE
  2
BLOCK_RECORD
  5
1
100
AcDbSymbolTable
 70
0
  0
BLOCK_RECORD
  5
207
100
AcDbSymbolTableRecord
100
AcDbBlockTableRecord
  2
*Model_Space
  0
BLOCK_RECORD
  5
208
100
AcDbSymbolTableRecord
100
AcDbBlockTableRecord
  2
*Paper_Space
  0
ENDTAB
  0
TABLE
  2
DIMSTYLE
  5
A
100
AcDbSymbolTable
 70
1
100
AcDbDimStyleTable
 71
0
  0
DIMSTYLE
105
209
100
AcDbSymbolTableRecord
100
AcDbDimStyleTableRecord
  2
STANDARD
 70
0
  3

  4

 40
1.0
 41
0.1875
 42
0.0625
 43
0.38
 44
0.125
 45
0.0
 46
0.0
 47
0.01
 48
0.01
140
0.15625
141
0.09
142
0.0
143
25.4
144
1.0
145
0.0
146
1.0
147
0.09
 71
0.0
 72
0.0
 73
1
 74
1
 75
0
 76
0
 77
0
 78
4
170
0
171
2
172
0
173
0
174
0
175
0
176
0
177
0
178
0
270
2
271
2
272
2
273
2
274
2
275
0
280
0
281
0
282
0
283
1
284
4
285
0
286
0
287
3
288
0
340
11
278
46
  0
ENDTAB
  0
ENDSEC
  0
SECTION
  2
BLOCKS
  0
BLOCK
  5
20
100
AcDbEntity
  8
0
100
AcDbBlockBegin
  2
*Model_Space
 70
0
 10
0.0
 20
0.0
 30
0.0
  3
*Model_Space
  1

  0
ENDBLK
  5
21
100
AcDbEntity
  8
0
100
AcDbBlockEnd
  0
BLOCK
  5
1C
100
AcDbEntity
  8
0
100
AcDbBlockBegin
  2
*Paper_Space
 70
0
 10
0.0
 20
0.0
 30
0.0
  3
*Paper_Space
  1

  0
ENDBLK
  5
1D
100
AcDbEntity
  8
0
100
AcDbBlockEnd
  0
ENDSEC
  0
SECTION
  2
ENTITIES
  0
LINE
  5
20A
100
AcDbEntity
  8
0
100
AcDbLine
 62
7
  6
CONTINUOUS
 10
0.0
 20
-0.0
 11
0.0
 21
8.2677165354
  0
LINE
  5
20B
100
AcDbEntity
  8
0
100
AcDbLine
 62
7
  6
CONTINUOUS
 10
0.0
 20
-0.0
 11
11.6929133858
 21
-0.0
  0
LINE
  5
20C
100
AcDbEntity
  8
0
100
AcDbLine
 62
7
  6
CONTINUOUS
 10
0.0
 20
8.2677165354
 11
11.6929133858
 21
8.2677165354
  0
LINE
  5
20D
100
AcDbEntity
  8
0
100
AcDbLine
 62
7
  6
CONTINUOUS
 10
11.6929133858
 20
-0.0
 11
11.6929133858
 21
8.2677165354
  0
LINE
  5
20E
100
AcDbEntity
  8
02___PRT_ALL_AXES
100
AcDbLine
 62
7
  6
CONTINUOUS
 10
1.3802626927
 20
5.383676773
 11
1.3802626927
 21
2.289188584
  0
LINE
  5
20F
100
AcDbEntity
  8
02___PRT_ALL_AXES
100
AcDbLine
 62
7
  6
CONTINUOUS
 10
3.3586091494
 20
7.4860389777
 11
2.9854834257
 21
7.1317082691
  0
LINE
  5
210
100
AcDbEntity
  8
02___PRT_ALL_AXES
100
AcDbLine
 62
7
  6
CONTINUOUS
 10
1.3802626927
 20
2.289188584
 11
8.5849871022
 21
2.289188584
  0
LINE
  5
211
100
AcDbEntity
  8
02___PRT_ALL_AXES
100
AcDbLine
 62
7
  6
CONTINUOUS
 10
4.2444359211
 20
6.8659602376
 11
4.2444359211
 21
7.4860389777
  0
LINE
  5
212
100
AcDbEntity
  8
02___PRT_ALL_AXES
100
AcDbLine
 62
7
  6
CONTINUOUS
 10
5.7208138738
 20
7.4860389777
 11
5.7208138738
 21
6.8659602376
  0
LINE
  5
213
100
AcDbEntity
  8
02___PRT_ALL_AXES
100
AcDbLine
 62
7
  6
CONTINUOUS
 10
2.9854834257
 20
7.1317082691
 11
2.7492629532
 21
7.1317082691
  0
LINE
  5
214
100
AcDbEntity
  8
02___PRT_ALL_AXES
100
AcDbLine
 62
7
  6
CONTINUOUS
 10
6.6066406455
 20
7.4860389777
 11
5.7208138738
 21
7.4860389777
  0
LINE
  5
215
100
AcDbEntity
  8
02___PRT_ALL_AXES
100
AcDbLine
 62
7
  6
CONTINUOUS
 10
4.2444359211
 20
7.4860389777
 11
3.3586091494
 21
7.4860389777
  0
LINE
  5
216
100
AcDbEntity
  8
02___PRT_ALL_AXES
100
AcDbLine
 62
7
  6
CONTINUOUS
 10
8.5849871022
 20
2.289188584
 11
8.5849871022
 21
5.383676773
  0
LINE
  5
217
100
AcDbEntity
  8
02___PRT_ALL_AXES
100
AcDbLine
 62
7
  6
CONTINUOUS
 10
1.3802626927
 20
1.1007478209
 11
1.3802626927
 21
1.2897241988
  0
LINE
  5
218
100
AcDbEntity
  8
02___PRT_ALL_AXES
100
AcDbLine
 62
8
  6
HIDDEN
 10
1.5727654039
 20
1.1007478209
 11
1.5727654039
 21
1.2897241988
  0
LINE
  5
219
100
AcDbEntity
  8
02___PRT_ALL_AXES
100
AcDbLine
 62
8
  6
HIDDEN
 10
1.8940422203
 20
1.1007478209
 11
1.8940422203
 21
1.2897241988
  0
LINE
  5
21A
100
AcDbEntity
  8
02___PRT_ALL_AXES
100
AcDbLine
 62
8
  6
HIDDEN
 10
2.1302626927
 20
1.1007478209
 11
2.1302626927
 21
1.2897241988
  0
LINE
  5
21B
100
AcDbEntity
  8
02___PRT_ALL_AXES
100
AcDbLine
 62
8
  6
HIDDEN
 10
2.4308997566
 20
1.1007478209
 11
2.4308997566
 21
1.2897241988
  0
LINE
  5
21C
100
AcDbEntity
  8
02___PRT_ALL_AXES
100
AcDbLine
 62
8
  6
HIDDEN
 10
2.7492629532
 20
1.1007478209
 11
2.7492629532
 21
1.2897241988
  0
LINE
  5
21D
100
AcDbEntity
  8
02___PRT_ALL_AXES
100
AcDbLine
 62
8
  6
HIDDEN
 10
2.9854834257
 20
1.1007478209
 11
2.9854834257
 21
1.2897241988
  0
LINE
  5
21E
100
AcDbEntity
  8
02___PRT_ALL_AXES
100
AcDbLine
 62
8
  6
HIDDEN
 10
3.3586091494
 20
1.1007478209
 11
3.3586091494
 21
1.2897241988
  0
LINE
  5
21F
100
AcDbEntity
  8
02___PRT_ALL_AXES
100
AcDbLine
 62
8
  6
HIDDEN
 10
4.2444359211
 20
1.1007478209
 11
4.2444359211
 21
1.2897241988
  0
LINE
  5
220
100
AcDbEntity
  8
02___PRT_ALL_AXES
100
AcDbLine
 62
8
  6
HIDDEN
 10
4.8645146612
 20
1.1007478209
 11
4.8645146612
 21
1.2897241988
  0
LINE
  5
221
100
AcDbEntity
  8
02___PRT_ALL_AXES
100
AcDbLine
 62
7
  6
CONTINUOUS
 10
1.3802626927
 20
1.1007478209
 11
8.5849871022
 21
1.1007478209
  0
LINE
  5
222
100
AcDbEntity
  8
02___PRT_ALL_AXES
100
AcDbLine
 62
8
  6
HIDDEN
 10
5.1007351337
 20
1.1007478209
 11
5.1007351337
 21
1.2897241988
  0
LINE
  5
223
100
AcDbEntity
  8
02___PRT_ALL_AXES
100
AcDbLine
 62
7
  6
CONTINUOUS
 10
1.3802626927
 20
1.2897241988
 11
8.5849871022
 21
1.2897241988
  0
LINE
  5
224
100
AcDbEntity
  8
02___PRT_ALL_AXES
100
AcDbLine
 62
8
  6
HIDDEN
 10
5.7208138738
 20
1.1007478209
 11
5.7208138738
 21
1.2897241988
  0
LINE
  5
225
100
AcDbEntity
  8
02___PRT_ALL_AXES
100
AcDbLine
 62
8
  6
HIDDEN
 10
6.6066406455
 20
1.1007478209
 11
6.6066406455
 21
1.2897241988
  0
LINE
  5
226
100
AcDbEntity
  8
02___PRT_ALL_AXES
100
AcDbLine
 62
8
  6
HIDDEN
 10
7.8349871022
 20
1.1007478209
 11
7.8349871022
 21
1.2897241988
  0
LINE
  5
227
100
AcDbEntity
  8
02___PRT_ALL_AXES
100
AcDbLine
 62
8
  6
HIDDEN
 10
8.0712075746
 20
1.1007478209
 11
8.0712075746
 21
1.2897241988
  0
LINE
  5
228
100
AcDbEntity
  8
02___PRT_ALL_AXES
100
AcDbLine
 62
8
  6
HIDDEN
 10
8.0742056214
 20
1.1007478209
 11
8.0742056214
 21
1.2897241988
  0
LINE
  5
229
100
AcDbEntity
  8
02___PRT_ALL_AXES
100
AcDbLine
 62
7
  6
CONTINUOUS
 10
8.5849871022
 20
1.1007478209
 11
8.5849871022
 21
1.2897241988
  0
ARC
  5
22A
100
AcDbEntity
  8
02___PRT_ALL_AXES
100
AcDbCircle
 62
7
  6
CONTINUOUS
 10
5.0107796394
 20
3.9425725738
 40
3.9096092138
100
AcDbArc
 50
125.3416557285
 51
131.2908572022
  0
ARC
  5
22B
100
AcDbEntity
  8
02___PRT_ALL_AXES
100
AcDbCircle
 62
7
  6
CONTINUOUS
 10
4.9826248974
 20
3.9746830379
 40
3.8681102362
100
AcDbArc
 50
151.827614936
 51
158.6380162645
  0
ARC
  5
22C
100
AcDbEntity
  8
02___PRT_ALL_AXES
100
AcDbCircle
 62
7
  6
CONTINUOUS
 10
4.9826248974
 20
3.9758091468
 40
3.8677001832
100
AcDbArc
 50
21.3464477511
 51
36.9335361121
  0
ARC
  5
22D
100
AcDbEntity
  8
02___PRT_ALL_AXES
100
AcDbCircle
 62
7
  6
CONTINUOUS
 10
4.9854914374
 20
3.9793770579
 40
3.8632624215
100
AcDbArc
 50
36.9167848938
 51
65.1886380899
  0
ARC
  5
22E
100
AcDbEntity
  8
02___PRT_ALL_AXES
100
AcDbCircle
 62
7
  6
CONTINUOUS
 10
4.9659660419
 20
3.983605103
 40
3.8492125984
100
AcDbArc
 50
131.1926909055
 51
151.827614936
  0
ARC
  5
22F
100
AcDbEntity
  8
02___PRT_ALL_AXES
100
AcDbCircle
 62
7
  6
CONTINUOUS
 10
4.9826248974
 20
6.8659602376
 40
0.7381889764
100
AcDbArc
 50
180.0
 51
360.0
  0
CIRCLE
  5
230
100
AcDbEntity
  8
02___PRT_ALL_AXES
100
AcDbCircle
 62
7
  6
CONTINUOUS
 10
2.0121524565
 20
3.6769838596
 40
0.1181102362
  0
CIRCLE
  5
231
100
AcDbEntity
  8
02___PRT_ALL_AXES
100
AcDbCircle
 62
7
  6
CONTINUOUS
 10
7.9530973384
 20
3.6769838596
 40
0.1181102362
  0
CIRCLE
  5
232
100
AcDbEntity
  8
02___PRT_ALL_AXES
100
AcDbCircle
 62
7
  6
CONTINUOUS
 10
4.9826248974
 20
5.8088736234
 40
0.1181102362
  0
ENDSEC
  0
SECTION
  2
OBJECTS
  0
DICTIONARY
  5
C
100
AcDbDictionary
280
0
281
1
  3
ACAD_GROUP
350
D
  3
ACAD_MLINESTYLE
350
17
  3
ACAD_LAYOUT
350
1A
  3
ACAD_PLOTSETTINGS
350
19
  3
ACAD_PLOTSTYLENAME
350
E
  0
DICTIONARY
  5
D
102
{ACAD_REACTORS
330
C
102
}
100
AcDbDictionary
280
0
281
1
  0
ACDBDICTIONARYWDFLT
  5
E
102
{ACAD_REACTORS
330
C
102
}
100
AcDbDictionary
281
1
  3
Normal
350
F
100
AcDbDictionaryWithDefault
340
F
  0
DICTIONARY
  5
17
102
{ACAD_REACTORS
330
C
102
}
100
AcDbDictionary
280
0
281
1
  3
Standard
350
18
  0
DICTIONARY
  5
19
102
{ACAD_REACTORS
330
C
102
}
100
AcDbDictionary
281
1
  0
DICTIONARY
  5
1A
102
{ACAD_REACTORS
330
C
102
}
100
AcDbDictionary
281
1
  3
Model
350
233
  3
Layout1
350
234
  0
ACDBPLACEHOLDER
  5
F
102
{ACAD_REACTORS
330
E
102
}
  0
MLINESTYLE
  5
18
102
{ACAD_REACTORS
330
17
102
}
100
AcDbMlineStyle
  2
STANDARD
 70
0
  3

 62
256
 51
90.0
 52
90.0
 71
2
 49
0.5
 62
256
  6
BYLAYER
 49
-0.5
 62
256
  6
BYLAYER
  0
LAYOUT
  5
233
102
{ACAD_REACTORS
330
1A
102
}
100
AcDbPlotSettings
  1

  2
none_device
  4
ISO_A4_(297.00_x_210.00_MM)
  6

 40
0.0
 41
0.0
 42
0.0
 43
0.0
 44
297.0
 45
210.0
 46
0.0
 47
0.0
 48
0.0
 49
0.0
140
0.0
141
0.0
142
1.0
143
1.0
 70
1024
 72
0
 73
0
 74
0
  7

 75
0
147
1.0
148
0.0
149
0.0
100
AcDbLayout
  1
Model
 70
0
 71
0
 10
0.0
 20
0.0
 11
11.6929133858
 21
8.2677165354
 12
0.0
 22
0.0
 32
0.0
 14
0.0
 24
0.0
 34
0.0
 15
0.0
 25
0.0
 35
0.0
146
0.0
 13
0.0
 23
0.0
 33
0.0
 16
1.0
 26
0.0
 36
0.0
 17
0.0
 27
1.0
 37
0.0
 76
0
330
207
345
0
346
0
  0
LAYOUT
  5
234
102
{ACAD_REACTORS
330
1A
102
}
100
AcDbPlotSettings
  1

  2
none_device
  4
ISO_A4_(297.00_x_210.00_MM)
  6

 40
0.0
 41
0.0
 42
0.0
 43
0.0
 44
297.0
 45
210.0
 46
0.0
 47
0.0
 48
0.0
 49
0.0
140
0.0
141
0.0
142
1.0
143
1.0
 70
0
 72
0
 73
0
 74
0
  7

 75
0
147
1.0
148
0.0
149
0.0
100
AcDbLayout
  1
Layout1
 70
0
 71
1
 10
0.0
 20
0.0
 11
11.6929133858
 21
8.2677165354
 12
0.0
 22
0.0
 32
0.0
 14
0.0
 24
0.0
 34
0.0
 15
0.0
 25
0.0
 35
0.0
146
0.0
 13
0.0
 23
0.0
 33
0.0
 16
1.0
 26
0.0
 36
0.0
 17
0.0
 27
1.0
 37
0.0
 76
0
330
208
345
0
346
0
  0
ENDSEC
  0
EOF
